<?xml version="1.0" encoding="utf-8"?>
<!-- Generator: Adobe Illustrator 21.1.0, SVG Export Plug-In . SVG Version: 6.00 Build 0)  -->
<svg version="1.1" id="Layer_1" xmlns="http://www.w3.org/2000/svg" xmlns:xlink="http://www.w3.org/1999/xlink" x="0px" y="0px"
	 viewBox="0 0 464.1 435.1" style="enable-background:new 0 0 464.1 435.1;" xml:space="preserve">
<style type="text/css">
	.st0{fill:none;}
	.st1{font-family:'Arial';}
	.st2{font-size:14px;}
	.st3{fill-rule:evenodd;clip-rule:evenodd;fill:#E6B0AC;}
	.st4{fill-rule:evenodd;clip-rule:evenodd;fill:#6798CD;}
	.st5{fill-rule:evenodd;clip-rule:evenodd;fill:#DB903C;}
	.st6{fill-rule:evenodd;clip-rule:evenodd;fill:#499EB4;}
	.st7{fill-rule:evenodd;clip-rule:evenodd;fill:#836497;}
	.st8{fill-rule:evenodd;clip-rule:evenodd;fill:#9AAA4E;}
	.st9{fill-rule:evenodd;clip-rule:evenodd;fill:#B55249;}
	.st10{fill-rule:evenodd;clip-rule:evenodd;fill:#527EAF;}
	.st11{font-size:16px;}
	.st12{fill:#333233;}
	.st13{font-size:12px;}
	.st14{fill:none;stroke:#A19E9C;stroke-width:0.5;stroke-linejoin:round;stroke-miterlimit:10;}
	.st15{fill:#527EAF;}
	.st16{fill:#B55249;}
	.st17{fill:#9AAA4E;}
	.st18{fill:#836497;}
	.st19{fill:#499EB4;}
	.st20{fill:#DB903C;}
	.st21{fill:#6798CD;}
	.st22{fill:#E6B0AC;}
	.st23{fill:none;stroke:#333333;stroke-linejoin:round;stroke-miterlimit:10;}
	.st24{fill:#5787BA;}
	.st25{fill:#BF574E;}
	.st26{fill:#A4B455;}
	.st27{fill:#8C6EA0;}
	.st28{fill:#54A8C0;}
	.st29{fill:#E69944;}
	.st30{fill:#B2C0DF;}
	.st31{fill:#E0AEAB;}
</style>
<g>
	<rect x="423.2" y="133.1" class="st0" width="40.9" height="15.3"/>
	<text transform="matrix(1 0 0 1 423.1899 143.1219)" class="st1 st2">BC08</text>
	<rect x="423.2" y="157.2" class="st0" width="40.9" height="15.3"/>
	<text transform="matrix(1 0 0 1 423.1899 167.2216)" class="st1 st2">BC07</text>
	<rect x="423.2" y="181.3" class="st0" width="40.9" height="15.3"/>
	<text transform="matrix(1 0 0 1 423.1899 191.3202)" class="st1 st2">BC06</text>
	<rect x="423.2" y="205.4" class="st0" width="40.9" height="15.3"/>
	<text transform="matrix(1 0 0 1 423.1899 215.4178)" class="st1 st2">BC05</text>
	<rect x="423.2" y="229.5" class="st0" width="40.9" height="15.3"/>
	<text transform="matrix(1 0 0 1 423.1899 239.5165)" class="st1 st2">BC04</text>
	<rect x="423.2" y="253.6" class="st0" width="40.9" height="15.3"/>
	<text transform="matrix(1 0 0 1 423.1899 263.6151)" class="st1 st2">BC03</text>
	<rect x="423.2" y="277.7" class="st0" width="40.9" height="15.3"/>
	<text transform="matrix(1 0 0 1 423.1899 287.7128)" class="st1 st2">BC02</text>
	<rect x="423.2" y="301.8" class="st0" width="40.9" height="15.3"/>
	<text transform="matrix(1 0 0 1 423.1899 311.8114)" class="st1 st2">BC01</text>
	<rect x="408.7" y="134" class="st3" width="8.8" height="8.8"/>
	<rect x="408.7" y="158" class="st4" width="8.8" height="8.8"/>
	<rect x="408.7" y="182" class="st5" width="8.8" height="8.8"/>
	<rect x="408.7" y="206" class="st6" width="8.8" height="8.8"/>
	<rect x="408.7" y="230" class="st7" width="8.8" height="8.8"/>
	<rect x="408.7" y="254" class="st8" width="8.8" height="8.8"/>
	<rect x="408.7" y="278" class="st9" width="8.8" height="8.8"/>
	<rect x="408.7" y="302" class="st10" width="8.8" height="8.8"/>
</g>
<text transform="matrix(1 0 0 1 3.8962 13.7308)" class="st1 st11">A</text>
<text transform="matrix(1 0 0 1 43.6265 13.7307)"><tspan x="0" y="0" class="st1 st11">Sequential loading of </tspan><tspan x="0" y="14" class="st1 st11">barcoded libraries </tspan><tspan x="0" y="28" class="st1 st11">without washing</tspan></text>
<text transform="matrix(1 0 0 1 224.8336 13.7305)" class="st1 st11">B</text>
<text transform="matrix(1 0 0 1 263.8884 13.7303)"><tspan x="0" y="0" class="st1 st11">Sequential loading of </tspan><tspan x="0" y="14" class="st1 st11">barcoded libraries </tspan><tspan x="0" y="28" class="st1 st11">with washing and storage</tspan></text>
<rect x="16.6" y="418.5" class="st0" width="198.8" height="13.6"/>
<text transform="matrix(1 0 0 1 34.2107 429.9248)" class="st12 st1 st11">Library loading number</text>
<rect x="51.7" y="405.5" class="st0" width="9.9" height="10"/>
<text transform="matrix(1 0 0 1 53.3644 414.0668)" class="st1 st13">1</text>
<rect x="68.4" y="405.5" class="st0" width="9.9" height="10"/>
<text transform="matrix(1 0 0 1 70.0349 414.0668)" class="st1 st13">2</text>
<rect x="85.1" y="405.5" class="st0" width="9.9" height="10"/>
<text transform="matrix(1 0 0 1 86.7051 414.0668)" class="st1 st13">3</text>
<rect x="101.8" y="405.5" class="st0" width="9.9" height="10"/>
<text transform="matrix(1 0 0 1 103.3764 414.0668)" class="st1 st13">4</text>
<rect x="118.4" y="405.5" class="st0" width="9.9" height="10"/>
<text transform="matrix(1 0 0 1 120.0468 414.0668)" class="st1 st13">5</text>
<rect x="135.1" y="405.5" class="st0" width="9.9" height="10"/>
<text transform="matrix(1 0 0 1 136.7171 414.0668)" class="st1 st13">6</text>
<rect x="151.8" y="405.5" class="st0" width="9.9" height="10"/>
<text transform="matrix(1 0 0 1 153.3884 414.0668)" class="st1 st13">7</text>
<rect x="168.4" y="405.5" class="st0" width="9.9" height="10"/>
<text transform="matrix(1 0 0 1 170.0588 414.0668)" class="st1 st13">8</text>
<path class="st14" d="M49.3,52.3h133.5 M49.3,86.9h133.5 M49.3,121.6h133.5 M49.3,156.2h133.5 M49.3,190.9h133.5 M49.3,225.5h133.5
	 M49.3,260.2h133.5 M49.3,293.1h133.5 M49.3,327.7h133.5 M49.3,362.4h133.5"/>
<rect x="170.6" y="364.1" class="st15" width="7" height="32.8"/>
<rect x="154" y="360.7" class="st15" width="7" height="36.3"/>
<rect x="137.4" y="346.8" class="st15" width="7" height="50.2"/>
<rect x="120.8" y="331.2" class="st15" width="7" height="65.8"/>
<rect x="104.2" y="305.2" class="st15" width="7" height="91.7"/>
<rect x="87.6" y="237.7" class="st15" width="6.4" height="159.3"/>
<rect x="71" y="128.5" class="st15" width="6.4" height="268.4"/>
<rect x="54.4" y="52.3" class="st15" width="6.4" height="344.7"/>
<rect x="170.6" y="331.2" class="st16" width="7" height="32.9"/>
<rect x="154" y="312.2" class="st16" width="7" height="48.5"/>
<rect x="137.4" y="281" class="st16" width="7" height="65.8"/>
<rect x="120.8" y="235.9" class="st16" width="7" height="95.3"/>
<rect x="104.2" y="197.8" class="st16" width="7" height="107.4"/>
<rect x="87.6" y="92.1" class="st16" width="6.4" height="145.5"/>
<rect x="71" y="52.3" class="st16" width="6.4" height="76.2"/>
<rect x="170.6" y="279.2" class="st17" width="7" height="52"/>
<rect x="154" y="251.5" class="st17" width="7" height="60.6"/>
<rect x="137.4" y="204.7" class="st17" width="7" height="76.2"/>
<rect x="120.8" y="133.7" class="st17" width="7" height="102.2"/>
<rect x="104.2" y="73.1" class="st17" width="7" height="124.7"/>
<rect x="87.6" y="52.3" class="st17" width="6.4" height="39.8"/>
<rect x="170.6" y="239.4" class="st18" width="7" height="39.8"/>
<rect x="154" y="203" class="st18" width="7" height="48.5"/>
<rect x="137.4" y="147.6" class="st18" width="7" height="57.2"/>
<rect x="120.8" y="74.8" class="st18" width="7" height="58.9"/>
<rect x="104.2" y="52.3" class="st18" width="7" height="20.8"/>
<rect x="170.6" y="171.8" class="st19" width="7" height="67.6"/>
<rect x="154" y="140.7" class="st19" width="7" height="62.4"/>
<rect x="137.4" y="78.3" class="st19" width="7" height="69.3"/>
<rect x="120.8" y="52.3" class="st19" width="7" height="22.5"/>
<rect x="170.6" y="107.7" class="st20" width="7" height="64.1"/>
<rect x="154" y="71.4" class="st20" width="7" height="69.3"/>
<rect x="137.4" y="52.3" class="st20" width="7" height="26"/>
<rect x="170.6" y="69.6" class="st21" width="7" height="38.1"/>
<rect x="154" y="52.3" class="st21" width="7" height="19.1"/>
<rect x="170.6" y="52.3" class="st22" width="7" height="17.3"/>
<polyline class="st23" points="43.6,52.1 49.3,52.1 49.4,52.1 49.4,397 "/>
<line class="st23" x1="45.8" y1="86.9" x2="49.3" y2="86.9"/>
<line class="st23" x1="43.6" y1="121.6" x2="49.3" y2="121.6"/>
<line class="st23" x1="45.8" y1="156.2" x2="49.3" y2="156.2"/>
<line class="st23" x1="43.6" y1="190.9" x2="49.3" y2="190.9"/>
<line class="st23" x1="45.8" y1="225.5" x2="49.3" y2="225.5"/>
<line class="st23" x1="43.6" y1="260.2" x2="49.3" y2="260.2"/>
<line class="st23" x1="45.8" y1="293.1" x2="49.3" y2="293.1"/>
<line class="st23" x1="43.6" y1="327.7" x2="49.3" y2="327.7"/>
<line class="st23" x1="45.8" y1="362.4" x2="49.3" y2="362.4"/>
<line class="st23" x1="43.6" y1="397" x2="49.3" y2="397"/>
<polyline class="st23" points="182.8,402.6 182.8,397 49.3,397 "/>
<line class="st23" x1="182.8" y1="397" x2="182.8" y2="402.6"/>
<line class="st23" x1="166.2" y1="397" x2="166.2" y2="402.6"/>
<line class="st23" x1="148.9" y1="397" x2="148.9" y2="402.6"/>
<line class="st23" x1="132.3" y1="397" x2="132.3" y2="402.6"/>
<line class="st23" x1="115.7" y1="397" x2="115.7" y2="402.6"/>
<line class="st23" x1="99.1" y1="397" x2="99.1" y2="402.6"/>
<line class="st23" x1="82.5" y1="397" x2="82.5" y2="402.6"/>
<line class="st23" x1="65.9" y1="397" x2="65.9" y2="402.6"/>
<line class="st23" x1="49.3" y1="397" x2="49.3" y2="402.6"/>
<rect x="248.2" y="418.5" class="st0" width="167.1" height="13.6"/>
<text transform="matrix(1 0 0 1 249.8751 429.9248)" class="st12 st1 st11">Library loading number</text>
<rect x="267.2" y="405.5" class="st0" width="9.9" height="10"/>
<text transform="matrix(1 0 0 1 268.8462 414.0605)" class="st1 st13">1</text>
<rect x="283.9" y="405.5" class="st0" width="9.9" height="10"/>
<text transform="matrix(1 0 0 1 285.5166 414.0605)" class="st1 st13">2</text>
<rect x="300.6" y="405.5" class="st0" width="9.9" height="10"/>
<text transform="matrix(1 0 0 1 302.1869 414.0605)" class="st1 st13">3</text>
<rect x="317.2" y="405.5" class="st0" width="9.9" height="10"/>
<text transform="matrix(1 0 0 1 318.8582 414.0605)" class="st1 st13">4</text>
<rect x="333.9" y="405.5" class="st0" width="9.9" height="10"/>
<text transform="matrix(1 0 0 1 335.5286 414.0605)" class="st1 st13">5</text>
<rect x="350.6" y="405.5" class="st0" width="9.9" height="10"/>
<text transform="matrix(1 0 0 1 352.1989 414.0605)" class="st1 st13">6</text>
<rect x="367.2" y="405.5" class="st0" width="9.9" height="10"/>
<text transform="matrix(1 0 0 1 368.8701 414.0605)" class="st1 st13">7</text>
<rect x="383.9" y="405.5" class="st0" width="9.9" height="10"/>
<text transform="matrix(1 0 0 1 385.5405 414.0605)" class="st1 st13">8</text>
<path class="st14" d="M263.9,52.3h132.4 M263.9,87.6h132.4 M263.9,121.3h132.4 M263.9,156.6h132.4 M263.9,190.4h132.4 M263.9,225.7
	h132.4 M263.9,259.4h132.4 M263.9,294.7h132.4 M263.9,328.4h132.4 M263.9,363.7h132.4"/>
<path class="st24" d="M384.6,395.8h7v1.6h-7V395.8z M335.2,395.8h6.5v1.6h-6.5V395.8z M318.4,395.8h6.5v1.6h-6.5V395.8z
	 M301.7,395.8h7v1.6h-7V395.8z M285.3,394.2h6.5v3.2h-6.5V394.2z M268.6,52.3h7v345.1h-7V52.3z"/>
<path class="st25" d="M351.5,395.8h6.5v1.6h-6.5V395.8z M335.2,394.2h6.5v3.2h-6.5V394.2z M318.4,386.2h6.5v9.6h-6.5V386.2z
	 M301.7,389.4h7v6.4h-7V389.4z M285.3,52.3h6.5v341.9h-6.5V52.3z"/>
<path class="st26" d="M351.5,391h6.5v4.8h-6.5V391z M335.2,386.2h6.5v8h-6.5V386.2z M318.4,371.7h6.5v14.4h-6.5V371.7z M301.7,52.3
	h7v337.1h-7V52.3z"/>
<path class="st27" d="M368.3,395.8h6.5v1.6h-6.5V395.8z M335.2,383h6.5v3.2h-6.5V383z M318.4,52.3h6.5v319.4h-6.5V52.3z"/>
<path class="st28" d="M384.6,395.8h7v1.6h-7V395.8z M368.3,394.2h6.5v1.6h-6.5V394.2z M351.5,374.9h6.5V391h-6.5V374.9z M335.2,52.3
	h6.5V383h-6.5V52.3z"/>
<path class="st29" d="M384.6,394.2h7v1.6h-7V394.2z M368.3,387.8h6.5v6.4h-6.5V387.8z M351.5,52.3h6.5v322.6h-6.5V52.3z"/>
<path class="st30" d="M384.6,384.6h7v9.6h-7V384.6z M368.3,52.3h6.5v335.5h-6.5V52.3z"/>
<rect x="384.6" y="52.3" class="st31" width="7" height="332.3"/>
<polyline class="st23" points="258,52.3 263.7,52.3 263.7,397.9 "/>
<line class="st23" x1="260.2" y1="87.6" x2="263.7" y2="87.6"/>
<line class="st23" x1="258" y1="121.3" x2="263.7" y2="121.3"/>
<line class="st23" x1="260.2" y1="156.6" x2="263.7" y2="156.6"/>
<line class="st23" x1="258" y1="190.4" x2="263.7" y2="190.4"/>
<line class="st23" x1="260.2" y1="225.7" x2="263.7" y2="225.7"/>
<line class="st23" x1="258" y1="259.4" x2="263.7" y2="259.4"/>
<line class="st23" x1="260.2" y1="294.7" x2="263.7" y2="294.7"/>
<line class="st23" x1="258" y1="328.4" x2="263.7" y2="328.4"/>
<line class="st23" x1="260.2" y1="363.7" x2="263.7" y2="363.7"/>
<line class="st23" x1="258" y1="397.9" x2="263.7" y2="397.9"/>
<polyline class="st23" points="396.4,402.7 396.4,397.9 263.7,397.9 "/>
<line class="st23" x1="379.8" y1="397.9" x2="379.8" y2="402.7"/>
<line class="st23" x1="363" y1="397.9" x2="363" y2="402.7"/>
<line class="st23" x1="346.7" y1="397.9" x2="346.7" y2="402.7"/>
<line class="st23" x1="329.9" y1="397.9" x2="329.9" y2="402.7"/>
<line class="st23" x1="313.1" y1="397.9" x2="313.1" y2="402.7"/>
<line class="st23" x1="296.8" y1="397.9" x2="296.8" y2="402.7"/>
<line class="st23" x1="280" y1="397.9" x2="280" y2="402.7"/>
<line class="st23" x1="263.7" y1="397.9" x2="263.7" y2="402.7"/>
<text transform="matrix(1 0 0 1 17.7928 402.1156)" class="st1 st11">0%</text>
<text transform="matrix(1 0 0 1 3.662109e-04 58.6519)" class="st1 st11">100%</text>
<text transform="matrix(1 0 0 1 8.8959 127.3444)" class="st1 st11">80%</text>
<text transform="matrix(1 0 0 1 8.8962 196.0367)" class="st1 st11">60%</text>
<text transform="matrix(1 0 0 1 8.8964 264.7299)" class="st1 st11">40%</text>
<text transform="matrix(1 0 0 1 8.8957 333.423)" class="st1 st11">20%</text>
<text transform="matrix(1 0 0 1 231.8217 402.1156)" class="st1 st11">0%</text>
<text transform="matrix(1 0 0 1 214.0293 58.6519)" class="st1 st11">100%</text>
<text transform="matrix(1 0 0 1 222.9248 127.3444)" class="st1 st11">80%</text>
<text transform="matrix(1 0 0 1 222.9252 196.0367)" class="st1 st11">60%</text>
<text transform="matrix(1 0 0 1 222.9253 264.7299)" class="st1 st11">40%</text>
<text transform="matrix(1 0 0 1 222.9246 333.423)" class="st1 st11">20%</text>
</svg>
